<svg width="24" height="24" viewBox="0 0 24 24" fill="none" xmlns="http://www.w3.org/2000/svg">
<path d="M19.812 6H4.18762C3.53278 6 3 6.54654 3 7.21764V16.7822C3 17.4538 3.53278 18 4.18762 18H19.8124C20.4672 18 21 17.4538 21 16.7822L20.9999 7.21764C20.9999 6.54654 20.4671 6 19.8122 6H19.812ZM19.9663 16.7821C19.9663 16.8692 19.8971 16.9404 19.8122 16.9404H4.18741C4.10245 16.9404 4.03325 16.8693 4.03325 16.7821L4.03311 11.5877H19.9661L19.9663 16.7821ZM19.9663 10.5284H4.03335V9.74037H19.9663V10.5284ZM19.9663 8.6808H4.03335V7.21772C4.03335 7.13061 4.10255 7.05966 4.18751 7.05966H19.8123C19.8972 7.05966 19.9664 7.13061 19.9664 7.21772L19.9663 8.6808Z" fill="#101840"/>
</svg>
