<svg width="24" height="24" viewBox="0 0 24 24" fill="none" xmlns="http://www.w3.org/2000/svg">
<rect width="24" height="24" fill="#F0F0F0"/>
<g id="1845">
<g clip-path="url(#clip0_19476_124535)">
<rect x="-52" y="-198" width="360" height="640" rx="40" fill="#F3F5F9"/>
<g id="Group 18070">
<g id="Rectangle 80" filter="url(#filter0_d_19476_124535)">
<path d="M-28 -86C-28 -92.6274 -22.6274 -98 -16 -98H272C278.627 -98 284 -92.6274 284 -86V136C284 142.627 278.627 148 272 148H-16C-22.6274 148 -28 142.627 -28 136V-86Z" fill="white"/>
</g>
<g id="Input Field">
<g id="_Base-Input Field">
<g id="Frame 3">
<rect x="-11.5" y="-9.5" width="279" height="43" rx="11.5" fill="white"/>
<g id="Edit / Close_Circle">
<rect width="24" height="24" rx="12" fill="white"/>
<path id="Vector" d="M12 7.75732V16.2424" stroke="#3366FF" stroke-width="2" stroke-linecap="round" stroke-linejoin="round"/>
<path id="Vector_2" d="M7.75745 11.9999H16.2425" stroke="#3366FF" stroke-width="2" stroke-linecap="round" stroke-linejoin="round"/>
</g>
<rect x="-11.5" y="-9.5" width="279" height="43" rx="11.5" stroke="#EEEEEE"/>
</g>
</g>
</g>
</g>
</g>
</g>
<defs>
<filter id="filter0_d_19476_124535" x="-36" y="-102" width="328" height="262" filterUnits="userSpaceOnUse" color-interpolation-filters="sRGB">
<feFlood flood-opacity="0" result="BackgroundImageFix"/>
<feColorMatrix in="SourceAlpha" type="matrix" values="0 0 0 0 0 0 0 0 0 0 0 0 0 0 0 0 0 0 127 0" result="hardAlpha"/>
<feOffset dy="4"/>
<feGaussianBlur stdDeviation="4"/>
<feComposite in2="hardAlpha" operator="out"/>
<feColorMatrix type="matrix" values="0 0 0 0 0.2 0 0 0 0 0.4 0 0 0 0 1 0 0 0 0.12 0"/>
<feBlend mode="normal" in2="BackgroundImageFix" result="effect1_dropShadow_19476_124535"/>
<feBlend mode="normal" in="SourceGraphic" in2="effect1_dropShadow_19476_124535" result="shape"/>
</filter>
<clipPath id="clip0_19476_124535">
<rect x="-52" y="-198" width="360" height="640" rx="40" fill="white"/>
</clipPath>
</defs>
</svg>
