<svg width="24" height="24" viewBox="0 0 24 24" fill="none" xmlns="http://www.w3.org/2000/svg">
<g id="Share">
<path id="Union" fill-rule="evenodd" clip-rule="evenodd" d="M18 6C18.5523 6 19 5.55228 19 5C19 4.44772 18.5523 4 18 4C17.4477 4 17 4.44772 17 5C17 5.55228 17.4477 6 18 6ZM18 8C19.6569 8 21 6.65685 21 5C21 3.34315 19.6569 2 18 2C16.3431 2 15 3.34315 15 5C15 5.14492 15.0103 5.28744 15.0301 5.42687L8.03701 9.79758C7.50204 9.30254 6.78635 9 6 9C4.34315 9 3 10.3431 3 12C3 13.6569 4.34315 15 6 15C6.78637 15 7.50207 14.6974 8.03704 14.2024L15.0301 18.5731C15.0103 18.7125 15 18.8551 15 19C15 20.6569 16.3431 22 18 22C19.6569 22 21 20.6569 21 19C21 17.3431 19.6569 16 18 16C17.2136 16 16.4979 16.3026 15.963 16.7976L8.96986 12.4269C8.98972 12.2875 9 12.1449 9 12C9 11.8551 8.98972 11.7125 8.96985 11.573L15.9629 7.20237C16.4979 7.69744 17.2136 8 18 8ZM19 19C19 19.5523 18.5523 20 18 20C17.4477 20 17 19.5523 17 19C17 18.4477 17.4477 18 18 18C18.5523 18 19 18.4477 19 19ZM6 13C6.55228 13 7 12.5523 7 12C7 11.4477 6.55228 11 6 11C5.44772 11 5 11.4477 5 12C5 12.5523 5.44772 13 6 13Z" fill="black"/>
</g>
</svg>
