<svg width="24" height="24" viewBox="0 0 24 24" fill="none" xmlns="http://www.w3.org/2000/svg">
<rect width="24" height="24" fill="#F0F0F0"/>
<g id="1842">
<g clip-path="url(#clip0_19476_124535)">
<rect x="-40" y="-189" width="360" height="640" rx="40" fill="#F3F5F9"/>
<g id="Group 18063">
<g id="Rectangle 80" filter="url(#filter0_d_19476_124535)">
<rect x="-16" y="-17" width="312" height="58" rx="12" fill="white"/>
<rect x="-15.5" y="-16.5" width="311" height="57" rx="11.5" stroke="#3366FF" stroke-opacity="0.3"/>
</g>
<g id="Group 18060">
<g id="Group 18042">
<path id="Vector" d="M15.0936 7.34368C15.0936 5.77323 13.8202 4.5 12.2499 4.5C10.6795 4.5 9.40625 5.77338 9.40625 7.34368C9.40625 8.91412 10.6796 10.1874 12.2499 10.1874C13.8204 10.1875 15.0936 8.89298 15.0936 7.34368ZM10.6795 7.34368C10.6795 6.47355 11.3798 5.77323 12.2499 5.77323C13.1201 5.77323 13.8204 6.47355 13.8204 7.34368C13.8204 8.2138 13.1201 8.91412 12.2499 8.91412C11.3798 8.89295 10.6795 8.19262 10.6795 7.34368Z" fill="black" stroke="white" stroke-width="0.5"/>
<path id="Vector_2" d="M21.1207 7.34368C21.1207 5.77323 19.8473 4.5 18.277 4.5C16.7066 4.5 15.4333 5.77338 15.4333 7.34368C15.4333 8.91412 16.7067 10.1874 18.277 10.1874C19.8475 10.1875 21.1207 8.89298 21.1207 7.34368ZM16.7278 7.34368C16.7278 6.47355 17.4281 5.77323 18.2982 5.77323C19.1684 5.77323 19.8687 6.47355 19.8687 7.34368C19.8687 8.2138 19.1684 8.91412 18.2982 8.91412C17.4281 8.89295 16.7278 8.19262 16.7278 7.34368Z" fill="black" stroke="white" stroke-width="0.5"/>
<path id="Vector_3" d="M1.97864 14.0909V18.0806H8.00561V19.566H16.4731V18.0806H22.5001V14.0909C22.5001 12.2233 20.9721 10.6953 19.1045 10.6953H17.4281C16.6216 10.6953 15.8576 10.9712 15.2422 11.4805C14.648 10.9924 13.884 10.6953 13.0564 10.6953H11.3799C10.5523 10.6953 9.78831 10.9924 9.19411 11.4805C8.57875 10.9711 7.81477 10.6953 7.00827 10.6953H5.33182C3.5066 10.6953 1.97864 12.2021 1.97864 14.0909ZM19.1258 11.9687C20.293 11.9687 21.248 12.9236 21.248 14.0909V16.8073H16.4731V14.0909C16.4731 13.4967 16.3245 12.9661 16.0698 12.4781C16.4518 12.1598 16.94 11.9687 17.4492 11.9687H19.1258ZM11.4223 11.9687H13.0988C14.266 11.9687 15.2209 12.9236 15.2209 14.0909V18.2928H9.30006V14.0909C9.30006 12.9236 10.2339 11.9687 11.4222 11.9687H11.4223ZM3.25194 14.0909C3.25194 12.9236 4.20688 11.9687 5.37412 11.9687H7.05056C7.55992 11.9687 8.04798 12.1597 8.4299 12.4781C8.17528 12.9661 8.02664 13.518 8.02664 14.0909V16.8073H3.25175L3.25194 14.0909Z" fill="black" stroke="white" stroke-width="0.5"/>
<path id="Vector_4" d="M9.04544 7.34368C9.04544 5.77323 7.77206 4.5 6.20177 4.5C4.63132 4.5 3.35809 5.77338 3.35809 7.34368C3.35809 8.91412 4.63147 10.1874 6.20177 10.1874C7.7721 10.1875 9.04544 8.89298 9.04544 7.34368ZM4.65254 7.34368C4.65254 6.47355 5.35286 5.77323 6.22299 5.77323C7.09312 5.77323 7.79344 6.47355 7.79344 7.34368C7.79344 8.2138 7.09312 8.91412 6.22299 8.91412C5.35286 8.89295 4.65254 8.19262 4.65254 7.34368Z" fill="black" stroke="white" stroke-width="0.5"/>
</g>
</g>
</g>
</g>
</g>
<defs>
<filter id="filter0_d_19476_124535" x="-24" y="-21" width="328" height="74" filterUnits="userSpaceOnUse" color-interpolation-filters="sRGB">
<feFlood flood-opacity="0" result="BackgroundImageFix"/>
<feColorMatrix in="SourceAlpha" type="matrix" values="0 0 0 0 0 0 0 0 0 0 0 0 0 0 0 0 0 0 127 0" result="hardAlpha"/>
<feOffset dy="4"/>
<feGaussianBlur stdDeviation="4"/>
<feComposite in2="hardAlpha" operator="out"/>
<feColorMatrix type="matrix" values="0 0 0 0 0.2 0 0 0 0 0.4 0 0 0 0 1 0 0 0 0.12 0"/>
<feBlend mode="normal" in2="BackgroundImageFix" result="effect1_dropShadow_19476_124535"/>
<feBlend mode="normal" in="SourceGraphic" in2="effect1_dropShadow_19476_124535" result="shape"/>
</filter>
<clipPath id="clip0_19476_124535">
<rect x="-40" y="-189" width="360" height="640" rx="40" fill="white"/>
</clipPath>
</defs>
</svg>
